Coordinates
version=1
nRows=10
nColumns=40
inDegrees=yes

Units are S.I. units (second, meters, Newtons, ...)
Angles are in degrees.

endheader
time	pelvis_tilt	pelvis_list	pelvis_rotation	pelvis_tx	pelvis_ty	pelvis_tz	hip_flexion_r	hip_adduction_r	hip_rotation_r	knee_angle_r	knee_angle_r_beta	ankle_angle_r	subtalar_angle_r	mtp_angle_r	hip_flexion_l	hip_adduction_l	hip_rotation_l	knee_angle_l	knee_angle_l_beta	ankle_angle_l	subtalar_angle_l	mtp_angle_l	lumbar_extension	lumbar_bending	lumbar_rotation	arm_flex_r	arm_add_r	arm_rot_r	elbow_flex_r	pro_sup_r	wrist_flex_r	wrist_dev_r	arm_flex_l	arm_add_l	arm_rot_l	elbow_flex_l	pro_sup_l	wrist_flex_l	wrist_dev_l
     47.25500000	     -4.66944834	     -3.95236193	     -2.85633147	      1.06722095	      0.92934453	      0.41154257	     24.45159876	     -2.65527471	    -12.77309980	     10.15195060	     10.15195060	      1.73055749	      9.29714581	      9.96426689	      6.74782341	     -5.62177740	    -13.33357802	     16.73069947	     16.73069947	     14.54865585	     -8.81305689	     -5.28243125	    -10.11273901	      3.00913412	      0.39051266	    -11.28368850	    -13.78881447	     -3.60497433	     32.59105109	     46.35850134	      0.00000000	      0.00000000	     19.02256095	    -18.12714758	     -6.07619994	     53.41860084	     46.70961736	      0.00000000	      0.00000000
     47.26850000	     -4.39437451	     -3.82728194	     -2.82031599	      1.06874627	      0.92905367	      0.41302030	     24.03805792	     -2.70498862	    -12.99795130	     11.44979797	     11.44979797	      1.96518084	      9.23162321	      8.68028671	      5.63132978	     -5.49602358	    -13.54194423	     16.11502591	     16.11502591	     14.92766386	     -8.19609325	     -5.21316264	    -10.27969769	      3.00973621	      0.30666254	    -10.75404306	    -14.01539668	     -3.83882036	     33.12734335	     46.34947154	      0.00000000	      0.00000000	     18.68625903	    -17.53701072	     -6.11155838	     53.56349337	     46.71435935	      0.00000000	      0.00000000
     47.28200000	     -4.35942761	     -3.85217763	     -2.67866875	      1.07036235	      0.92846044	      0.41464809	     23.47539127	     -2.52009526	    -13.04635812	     12.16792256	     12.16792256	      2.12285060	      8.94916673	      8.22199615	      5.05080870	     -5.60044930	    -13.43505968	     16.00789506	     16.00789506	     15.26470727	     -8.09386199	     -5.25748968	    -10.06814740	      3.19235064	      0.30066741	    -10.31648799	    -14.17824972	     -3.91165603	     33.36676072	     46.34652569	      0.00000000	      0.00000000	     18.38745680	    -16.98101001	     -6.00162575	     53.53768226	     46.70221804	      0.00000000	      0.00000000
     47.29550000	     -4.15352079	     -3.51700047	     -2.61069941	      1.07228804	      0.92790014	      0.41644763	     23.20029775	     -2.74896654	    -12.49077523	     13.77988432	     13.77988432	      2.28137145	      7.94646190	      6.29233196	      4.06280311	     -5.30244391	    -13.73217890	     15.52942075	     15.52942075	     15.62367709	     -7.40119476	     -5.04225572	    -10.01033322	      2.91515835	      0.14596721	     -9.94019889	    -14.30224946	     -4.15431913	     34.06269766	     46.32912196	      0.00000000	      0.00000000	     18.01099878	    -16.77395054	     -6.22870631	     53.59360642	     46.72134802	      0.00000000	      0.00000000
     47.30900000	     -3.92756021	     -3.45301266	     -2.45371556	      1.07451390	      0.92736162	      0.41848407	     22.37038516	     -2.54148007	    -11.77885892	     14.28191203	     14.28191203	      0.98892358	      6.48550508	      0.92177316	      3.27434741	     -5.42082281	    -14.05632402	     15.58448553	     15.58448553	     16.57665063	     -6.37719038	     -4.06133235	    -10.00478917	      2.98118071	      0.05833388	     -9.90325773	    -14.51935414	     -4.74461270	     35.84371976	     46.25963240	      0.00000000	      0.00000000	     17.35405692	    -16.21524988	     -7.20931715	     54.12132573	     46.81358333	      0.00000000	      0.00000000
     47.32250000	     -3.69657291	     -3.34334181	     -2.30088467	      1.07679589	      0.92704335	      0.42047156	     21.84612560	     -2.55671477	    -11.46063079	     15.40824462	     15.40824462	      1.58546366	      5.99937561	      0.35486757	      2.34364746	     -5.38863288	    -14.05794389	     15.28363821	     15.28363821	     16.84119374	     -6.07989402	     -3.94782300	     -9.95165596	      2.99713784	      0.07337290	     -9.34244639	    -14.74753991	     -4.80975479	     36.10914483	     46.25335314	      0.00000000	      0.00000000	     16.96413966	    -15.83681852	     -7.11970697	     53.88645535	     46.79970833	      0.00000000	      0.00000000
     47.33600000	     -3.47885147	     -3.20361715	     -2.17647868	      1.07914150	      0.92684567	      0.42267488	     21.31959500	     -2.49480665	    -10.68667187	     16.28905726	     16.28905726	      1.96832201	      4.80378393	     -0.76559779	      1.47002262	     -5.39090841	    -14.29685328	     15.12397700	     15.12397700	     17.46569507	     -5.32992633	     -3.02260148	     -9.87899076	      2.97620611	      0.00366805	     -8.87788455	    -14.96178544	     -4.92833044	     37.08382132	     46.20248539	      0.00000000	      0.00000000	     16.36767050	    -15.35583641	     -7.53967792	     53.73130815	     46.82857489	      0.00000000	      0.00000000
     47.34950000	     -3.29118433	     -3.18356242	     -2.03235752	      1.08146160	      0.92678647	      0.42489229	     20.82491744	     -2.41278309	    -10.47092419	     17.06326791	     17.06326791	      2.61041807	      4.48461095	     -1.15238605	      0.70809251	     -5.51187702	    -14.26502048	     15.05638743	     15.05638743	     17.65009666	     -5.17396953	     -2.91314283	     -9.80081541	      3.11008543	      0.17349320	     -8.24505976	    -15.25008129	     -5.00686268	     37.40489078	     46.19714828	      0.00000000	      0.00000000	     15.77757504	    -14.84959855	     -7.45524157	     53.50184424	     46.81262857	      0.00000000	      0.00000000
     47.36300000	     -3.04929886	     -3.03450119	     -1.93302682	      1.08372464	      0.92693488	      0.42741363	     20.47015991	     -2.43051197	     -9.91352729	     18.03468878	     18.03468878	      3.36224195	      3.68933788	     -1.58584169	     -0.14920845	     -5.52761498	    -14.39454060	     14.92741671	     14.92741671	     17.87940593	     -4.72751431	     -2.49521543	     -9.80456969	      3.05348950	      0.13498850	     -7.50976147	    -15.47905575	     -5.13192105	     38.10910491	     46.17708180	      0.00000000	      0.00000000	     15.12430139	    -14.61930541	     -7.63414444	     53.20057034	     46.81767184	      0.00000000	      0.00000000
     47.37650000	     -2.89795627	     -3.05406213	     -1.83651819	      1.08581565	      0.92723376	      0.43007670	     20.03283665	     -2.26708626	     -9.67855103	     18.54885219	     18.54885219	      3.96115052	      3.35136153	     -1.85762646	     -0.70251819	     -5.78049782	    -14.38741715	     15.15653176	     15.15653176	     17.96606427	     -4.67460442	     -2.31223357	     -9.72369255	      3.19000680	      0.34838234	     -6.79582204	    -15.76024519	     -5.22290798	     38.56528265	     46.16784400	      0.00000000	      0.00000000	     14.42268021	    -14.07271179	     -7.61704922	     52.95304153	     46.80606815	      0.00000000	      0.00000000
